{
    "asset" : {
        "generator" : "Khronos glTF Blender I/O v1.6.16",
        "version" : "2.0"
    },
    "scene" : 0,
    "scenes" : [
        {
            "name" : "Scene",
            "nodes" : [
                0,
                1,
                2,
                3,
                4,
                5,
                6,
                7,
                8,
                9
            ]
        }
    ],
    "nodes" : [
        {
            "name" : "Light",
            "rotation" : [
                -0.07275740802288055,
                0.9382684826850891,
                -0.3120420277118683,
                -0.13033966720104218
            ],
            "translation" : [
                -2.815639019012451,
                1.6708555221557617,
                -0.09051632881164551
            ]
        },
        {
            "name" : "Camera",
            "rotation" : [
                -0.3667999505996704,
                0.6273128390312195,
                -0.42856040596961975,
                -0.5369099974632263
            ],
            "translation" : [
                -8.589899063110352,
                5.399158477783203,
                -1.458609938621521
            ]
        },
        {
            "name" : "REF",
            "rotation" : [
                0.5002278685569763,
                0.49977201223373413,
                -0.4997721016407013,
                0.5002278089523315
            ],
            "translation" : [
                1.1894054412841797,
                1.9557687044143677,
                0.009924033656716347
            ]
        },
        {
            "mesh" : 0,
            "name" : "UTERUS",
            "rotation" : [
                0.2148284614086151,
                0.673344612121582,
                -0.21502438187599182,
                0.6739586591720581
            ],
            "translation" : [
                0.5321141481399536,
                1.2006006240844727,
                0.011464713141322136
            ]
        },
        {
            "mesh" : 1,
            "name" : "WOMB",
            "rotation" : [
                0,
                0,
                0.4167177975177765,
                0.9090359210968018
            ],
            "translation" : [
                0.2904803156852722,
                2.7635498046875,
                -0.0071083903312683105
            ]
        },
        {
            "mesh" : 2,
            "name" : "OVARIES",
            "rotation" : [
                0,
                0.7067844271659851,
                0,
                0.7074289917945862
            ],
            "translation" : [
                -0.06513005495071411,
                0.7088019847869873,
                0.017461776733398438
            ]
        },
        {
            "mesh" : 3,
            "name" : "TUBE_R",
            "rotation" : [
                0.6342173218727112,
                -0.12359590083360672,
                0.7353115677833557,
                0.2044733166694641
            ],
            "scale" : [
                0.07107017934322357,
                0.07107017934322357,
                0.07107017934322357
            ],
            "translation" : [
                0.0607757568359375,
                3.028934955596924,
                0.8144536018371582
            ]
        },
        {
            "mesh" : 4,
            "name" : "TUBE_L",
            "rotation" : [
                -0.7299067974090576,
                -0.2055141031742096,
                0.6404301524162292,
                -0.12185746431350708
            ],
            "scale" : [
                0.07107017934322357,
                0.07107017934322357,
                0.07107017934322357
            ],
            "translation" : [
                -0.057358041405677795,
                3.036956548690796,
                -0.8702287077903748
            ]
        },
        {
            "mesh" : 5,
            "name" : "Ov_Tube_R",
            "rotation" : [
                -0.09522242099046707,
                0.707634687423706,
                0.1904144585132599,
                0.6737419366836548
            ],
            "scale" : [
                0.035010065883398056,
                0.06117779016494751,
                0.06161018833518028
            ],
            "translation" : [
                0.005372006446123123,
                1.3692874908447266,
                0.8351300358772278
            ]
        },
        {
            "mesh" : 6,
            "name" : "Ov_Tube_R.001",
            "rotation" : [
                -0.09522242844104767,
                0.707634687423706,
                0.1904144436120987,
                0.6737419366836548
            ],
            "scale" : [
                -0.035010065883398056,
                0.06117779016494751,
                0.06161018833518028
            ],
            "translation" : [
                -0.2174920290708542,
                1.3465861082077026,
                -0.8673452734947205
            ]
        }
    ],
    "materials" : [
        {
            "doubleSided" : true,
            "name" : "Material.001",
            "pbrMetallicRoughness" : {
                "baseColorFactor" : [
                    0.3662527799606323,
                    0.0666259154677391,
                    0.06662598252296448,
                    1
                ],
                "metallicFactor" : 0,
                "roughnessFactor" : 0.5
            }
        },
        {
            "doubleSided" : true,
            "name" : "Material.002",
            "pbrMetallicRoughness" : {
                "baseColorFactor" : [
                    0.3662527799606323,
                    0.0666259154677391,
                    0.06662598252296448,
                    1
                ],
                "metallicFactor" : 0,
                "roughnessFactor" : 0.5
            }
        },
        {
            "doubleSided" : true,
            "name" : "Material.003",
            "pbrMetallicRoughness" : {
                "baseColorFactor" : [
                    0.8962696194648743,
                    0.7230553030967712,
                    0.7758224010467529,
                    1
                ],
                "metallicFactor" : 0,
                "roughnessFactor" : 0.5
            }
        },
        {
            "doubleSided" : true,
            "name" : "Material",
            "pbrMetallicRoughness" : {
                "baseColorFactor" : [
                    0.6444797515869141,
                    0.39157259464263916,
                    0.34670406579971313,
                    1
                ],
                "metallicFactor" : 0,
                "roughnessFactor" : 0.5
            }
        },
        {
            "doubleSided" : true,
            "name" : "Material.005",
            "pbrMetallicRoughness" : {
                "baseColorFactor" : [
                    0.8962696194648743,
                    0.7230553030967712,
                    0.7758224010467529,
                    1
                ],
                "metallicFactor" : 0,
                "roughnessFactor" : 0.5
            }
        }
    ],
    "meshes" : [
        {
            "name" : "Cylinder",
            "primitives" : [
                {
                    "attributes" : {
                        "POSITION" : 0,
                        "NORMAL" : 1,
                        "TEXCOORD_0" : 2
                    },
                    "indices" : 3,
                    "material" : 0
                }
            ]
        },
        {
            "name" : "Sphere.001",
            "primitives" : [
                {
                    "attributes" : {
                        "POSITION" : 4,
                        "NORMAL" : 5,
                        "TEXCOORD_0" : 6
                    },
                    "indices" : 7,
                    "material" : 1
                }
            ]
        },
        {
            "name" : "Cylinder.003",
            "primitives" : [
                {
                    "attributes" : {
                        "POSITION" : 8,
                        "NORMAL" : 9,
                        "TEXCOORD_0" : 10
                    },
                    "indices" : 11,
                    "material" : 2
                }
            ]
        },
        {
            "name" : "BezierCurve.001",
            "primitives" : [
                {
                    "attributes" : {
                        "POSITION" : 12,
                        "NORMAL" : 13,
                        "TEXCOORD_0" : 14
                    },
                    "indices" : 15,
                    "material" : 3
                }
            ]
        },
        {
            "name" : "BezierCurve.002",
            "primitives" : [
                {
                    "attributes" : {
                        "POSITION" : 16,
                        "NORMAL" : 17,
                        "TEXCOORD_0" : 18
                    },
                    "indices" : 15,
                    "material" : 3
                }
            ]
        },
        {
            "name" : "BezierCurve.003",
            "primitives" : [
                {
                    "attributes" : {
                        "POSITION" : 19,
                        "NORMAL" : 20,
                        "TEXCOORD_0" : 21
                    },
                    "indices" : 22,
                    "material" : 4
                }
            ]
        },
        {
            "name" : "BezierCurve.005",
            "primitives" : [
                {
                    "attributes" : {
                        "POSITION" : 23,
                        "NORMAL" : 24,
                        "TEXCOORD_0" : 25
                    },
                    "indices" : 22,
                    "material" : 4
                }
            ]
        }
    ],
    "accessors" : [
        {
            "bufferView" : 0,
            "componentType" : 5126,
            "count" : 1984,
            "max" : [
                0.30711787939071655,
                0.8554202914237976,
                0.3381524682044983
            ],
            "min" : [
                -0.3417295813560486,
                -0.4095733165740967,
                -0.04138226434588432
            ],
            "type" : "VEC3"
        },
        {
            "bufferView" : 1,
            "componentType" : 5126,
            "count" : 1984,
            "type" : "VEC3"
        },
        {
            "bufferView" : 2,
            "componentType" : 5126,
            "count" : 1984,
            "type" : "VEC2"
        },
        {
            "bufferView" : 3,
            "componentType" : 5123,
            "count" : 9744,
            "type" : "SCALAR"
        },
        {
            "bufferView" : 4,
            "componentType" : 5126,
            "count" : 272,
            "max" : [
                0.40701720118522644,
                0.6621178388595581,
                0.7753989100456238
            ],
            "min" : [
                -0.5142505168914795,
                -1.4127569198608398,
                -0.760260283946991
            ],
            "type" : "VEC3"
        },
        {
            "bufferView" : 5,
            "componentType" : 5126,
            "count" : 272,
            "type" : "VEC3"
        },
        {
            "bufferView" : 6,
            "componentType" : 5126,
            "count" : 272,
            "type" : "VEC2"
        },
        {
            "bufferView" : 7,
            "componentType" : 5123,
            "count" : 1485,
            "type" : "SCALAR"
        },
        {
            "bufferView" : 8,
            "componentType" : 5126,
            "count" : 17061,
            "max" : [
                1.6499359607696533,
                1.9489948749542236,
                0.335020512342453
            ],
            "min" : [
                -1.6444770097732544,
                1.4824696779251099,
                -0.23354722559452057
            ],
            "type" : "VEC3"
        },
        {
            "bufferView" : 9,
            "componentType" : 5126,
            "count" : 17061,
            "type" : "VEC3"
        },
        {
            "bufferView" : 10,
            "componentType" : 5126,
            "count" : 17061,
            "type" : "VEC2"
        },
        {
            "bufferView" : 11,
            "componentType" : 5123,
            "count" : 95232,
            "type" : "SCALAR"
        },
        {
            "bufferView" : 12,
            "componentType" : 5126,
            "count" : 325,
            "max" : [
                13.269775390625,
                10.053888320922852,
                5.488542079925537
            ],
            "min" : [
                -5.2406005859375,
                -0.32191044092178345,
                -1.802079200744629
            ],
            "type" : "VEC3"
        },
        {
            "bufferView" : 13,
            "componentType" : 5126,
            "count" : 325,
            "type" : "VEC3"
        },
        {
            "bufferView" : 14,
            "componentType" : 5126,
            "count" : 325,
            "type" : "VEC2"
        },
        {
            "bufferView" : 15,
            "componentType" : 5123,
            "count" : 1728,
            "type" : "SCALAR"
        },
        {
            "bufferView" : 16,
            "componentType" : 5126,
            "count" : 325,
            "max" : [
                13.269775390625,
                10.053888320922852,
                5.488542079925537
            ],
            "min" : [
                -5.2406005859375,
                -0.32191044092178345,
                -1.802079200744629
            ],
            "type" : "VEC3"
        },
        {
            "bufferView" : 17,
            "componentType" : 5126,
            "count" : 325,
            "type" : "VEC3"
        },
        {
            "bufferView" : 18,
            "componentType" : 5126,
            "count" : 325,
            "type" : "VEC2"
        },
        {
            "bufferView" : 19,
            "componentType" : 5126,
            "count" : 169,
            "max" : [
                9.149871826171875,
                16.977888107299805,
                10.11413288116455
            ],
            "min" : [
                -5.39150333404541,
                13.87666130065918,
                6.730384349822998
            ],
            "type" : "VEC3"
        },
        {
            "bufferView" : 20,
            "componentType" : 5126,
            "count" : 169,
            "type" : "VEC3"
        },
        {
            "bufferView" : 21,
            "componentType" : 5126,
            "count" : 169,
            "type" : "VEC2"
        },
        {
            "bufferView" : 22,
            "componentType" : 5123,
            "count" : 864,
            "type" : "SCALAR"
        },
        {
            "bufferView" : 23,
            "componentType" : 5126,
            "count" : 169,
            "max" : [
                3.7467899322509766,
                16.6910343170166,
                14.290491104125977
            ],
            "min" : [
                -10.020840644836426,
                12.946883201599121,
                9.75312614440918
            ],
            "type" : "VEC3"
        },
        {
            "bufferView" : 24,
            "componentType" : 5126,
            "count" : 169,
            "type" : "VEC3"
        },
        {
            "bufferView" : 25,
            "componentType" : 5126,
            "count" : 169,
            "type" : "VEC2"
        }
    ],
    "bufferViews" : [
        {
            "buffer" : 0,
            "byteLength" : 23808,
            "byteOffset" : 0
        },
        {
            "buffer" : 0,
            "byteLength" : 23808,
            "byteOffset" : 23808
        },
        {
            "buffer" : 0,
            "byteLength" : 15872,
            "byteOffset" : 47616
        },
        {
            "buffer" : 0,
            "byteLength" : 19488,
            "byteOffset" : 63488
        },
        {
            "buffer" : 0,
            "byteLength" : 3264,
            "byteOffset" : 82976
        },
        {
            "buffer" : 0,
            "byteLength" : 3264,
            "byteOffset" : 86240
        },
        {
            "buffer" : 0,
            "byteLength" : 2176,
            "byteOffset" : 89504
        },
        {
            "buffer" : 0,
            "byteLength" : 2970,
            "byteOffset" : 91680
        },
        {
            "buffer" : 0,
            "byteLength" : 204732,
            "byteOffset" : 94652
        },
        {
            "buffer" : 0,
            "byteLength" : 204732,
            "byteOffset" : 299384
        },
        {
            "buffer" : 0,
            "byteLength" : 136488,
            "byteOffset" : 504116
        },
        {
            "buffer" : 0,
            "byteLength" : 190464,
            "byteOffset" : 640604
        },
        {
            "buffer" : 0,
            "byteLength" : 3900,
            "byteOffset" : 831068
        },
        {
            "buffer" : 0,
            "byteLength" : 3900,
            "byteOffset" : 834968
        },
        {
            "buffer" : 0,
            "byteLength" : 2600,
            "byteOffset" : 838868
        },
        {
            "buffer" : 0,
            "byteLength" : 3456,
            "byteOffset" : 841468
        },
        {
            "buffer" : 0,
            "byteLength" : 3900,
            "byteOffset" : 844924
        },
        {
            "buffer" : 0,
            "byteLength" : 3900,
            "byteOffset" : 848824
        },
        {
            "buffer" : 0,
            "byteLength" : 2600,
            "byteOffset" : 852724
        },
        {
            "buffer" : 0,
            "byteLength" : 2028,
            "byteOffset" : 855324
        },
        {
            "buffer" : 0,
            "byteLength" : 2028,
            "byteOffset" : 857352
        },
        {
            "buffer" : 0,
            "byteLength" : 1352,
            "byteOffset" : 859380
        },
        {
            "buffer" : 0,
            "byteLength" : 1728,
            "byteOffset" : 860732
        },
        {
            "buffer" : 0,
            "byteLength" : 2028,
            "byteOffset" : 862460
        },
        {
            "buffer" : 0,
            "byteLength" : 2028,
            "byteOffset" : 864488
        },
        {
            "buffer" : 0,
            "byteLength" : 1352,
            "byteOffset" : 866516
        }
    ],
    "buffers" : [
        {
            "byteLength" : 867868,
            "uri" : "data:application/octet-stream;base64,"
        }
    ]
}
