{
  "accessors": [
    {
      "bufferView": 2,
      "componentType": 5126,
      "count": 65532,
      "max": [
        0.32823672890663147,
        0.8462504744529724,
        0.33324146270751953
      ],
      "min": [
        -0.29716628789901733,
        -0.4095405340194702,
        -0.03539262339472771
      ],
      "type": "VEC3"
    },
    {
      "bufferView": 2,
      "byteOffset": 786384,
      "componentType": 5126,
      "count": 65532,
      "max": [
        0.9999892711639404,
        0.9824705719947815,
        0.9999411106109619
      ],
      "min": [
        -0.9999974966049194,
        -0.9955489635467529,
        -0.9999980926513672
      ],
      "type": "VEC3"
    },
    {
      "bufferView": 1,
      "componentType": 5126,
      "count": 65532,
      "max": [
        0.9900004863739014,
        1.0
      ],
      "min": [
        0.010000020265579224,
        0.010000020265579224
      ],
      "type": "VEC2"
    },
    {
      "bufferView": 0,
      "componentType": 5125,
      "count": 354324,
      "type": "SCALAR"
    },
    {
      "bufferView": 2,
      "byteOffset": 1572768,
      "componentType": 5126,
      "count": 65532,
      "max": [
        0.30449041724205017,
        0.8502061367034912,
        0.33470088243484497
      ],
      "min": [
        -0.29577183723449707,
        -0.4089958667755127,
        -0.017314564436674118
      ],
      "type": "VEC3"
    },
    {
      "bufferView": 2,
      "byteOffset": 2359152,
      "componentType": 5126,
      "count": 65532,
      "max": [
        0.999993085861206,
        0.9999998807907104,
        0.9999889135360718
      ],
      "min": [
        -0.999995231628418,
        -0.9958711862564087,
        -0.9999984502792358
      ],
      "type": "VEC3"
    },
    {
      "bufferView": 1,
      "byteOffset": 524256,
      "componentType": 5126,
      "count": 65532,
      "max": [
        0.9717311859130859,
        1.0000004768371582
      ],
      "min": [
        0.010000020265579224,
        0.010000020265579224
      ],
      "type": "VEC2"
    },
    {
      "bufferView": 0,
      "byteOffset": 1417296,
      "componentType": 5125,
      "count": 326310,
      "type": "SCALAR"
    },
    {
      "bufferView": 2,
      "byteOffset": 3145536,
      "componentType": 5126,
      "count": 65532,
      "max": [
        0.29577183723449707,
        0.850206196308136,
        0.33470091223716736
      ],
      "min": [
        -0.32823672890663147,
        -0.4095405340194702,
        -0.03539261966943741
      ],
      "type": "VEC3"
    },
    {
      "bufferView": 2,
      "byteOffset": 3931920,
      "componentType": 5126,
      "count": 65532,
      "max": [
        0.9999821186065674,
        0.9999998807907104,
        0.999968409538269
      ],
      "min": [
        -0.9999892711639404,
        -0.9958711862564087,
        -0.9999984502792358
      ],
      "type": "VEC3"
    },
    {
      "bufferView": 1,
      "byteOffset": 1048512,
      "componentType": 5126,
      "count": 65532,
      "max": [
        0.9900004863739014,
        1.0000004768371582
      ],
      "min": [
        0.010000020265579224,
        0.010000020265579224
      ],
      "type": "VEC2"
    },
    {
      "bufferView": 0,
      "byteOffset": 2722536,
      "componentType": 5125,
      "count": 351759,
      "type": "SCALAR"
    },
    {
      "bufferView": 2,
      "byteOffset": 4718304,
      "componentType": 5126,
      "count": 46896,
      "max": [
        0.2913973331451416,
        0.8500236868858337,
        0.33209729194641113
      ],
      "min": [
        -0.32396218180656433,
        -0.40899592638015747,
        -0.03539261966943741
      ],
      "type": "VEC3"
    },
    {
      "bufferView": 2,
      "byteOffset": 5281056,
      "componentType": 5126,
      "count": 46896,
      "max": [
        0.9999974966049194,
        0.9991003274917603,
        0.9999889135360718
      ],
      "min": [
        -0.9999756813049316,
        -0.9955489635467529,
        -0.9999886751174927
      ],
      "type": "VEC3"
    },
    {
      "bufferView": 1,
      "byteOffset": 1572768,
      "componentType": 5126,
      "count": 46896,
      "max": [
        0.9900004863739014,
        1.0000004768371582
      ],
      "min": [
        0.010000020265579224,
        0.010000020265579224
      ],
      "type": "VEC2"
    },
    {
      "bufferView": 0,
      "byteOffset": 4129572,
      "componentType": 5125,
      "count": 214839,
      "type": "SCALAR"
    },
    {
      "bufferView": 2,
      "byteOffset": 5843808,
      "componentType": 5126,
      "count": 10022,
      "max": [
        0.3821130394935608,
        0.6600604057312012,
        0.7417255640029907
      ],
      "min": [
        -0.5031560659408569,
        -1.3717715740203857,
        -0.7265864610671997
      ],
      "type": "VEC3"
    },
    {
      "bufferView": 2,
      "byteOffset": 5964072,
      "componentType": 5126,
      "count": 10022,
      "max": [
        0.9987740516662598,
        0.9986550807952881,
        0.9983994364738464
      ],
      "min": [
        -0.9999964237213135,
        -0.9983343482017517,
        -0.9971534013748169
      ],
      "type": "VEC3"
    },
    {
      "bufferView": 1,
      "byteOffset": 1947936,
      "componentType": 5126,
      "count": 10022,
      "max": [
        0.7500001192092896,
        0.9375004172325134
      ],
      "min": [
        0.2499999701976776,
        0.06249988079071045
      ],
      "type": "VEC2"
    },
    {
      "bufferView": 0,
      "byteOffset": 4988928,
      "componentType": 5125,
      "count": 51408,
      "type": "SCALAR"
    },
    {
      "bufferView": 2,
      "byteOffset": 6084336,
      "componentType": 5126,
      "count": 17351,
      "max": [
        1.6499359607696533,
        1.9489948749542236,
        0.335020512342453
      ],
      "min": [
        -1.6444770097732544,
        1.4824696779251099,
        -0.23354722559452057
      ],
      "type": "VEC3"
    },
    {
      "bufferView": 2,
      "byteOffset": 6292548,
      "componentType": 5126,
      "count": 17351,
      "max": [
        1.0,
        1.0,
        1.0
      ],
      "min": [
        -1.0,
        -1.0,
        -1.0
      ],
      "type": "VEC3"
    },
    {
      "bufferView": 1,
      "byteOffset": 2028112,
      "componentType": 5126,
      "count": 17351,
      "max": [
        1.007775068283081,
        1.0211082696914673
      ],
      "min": [
        -0.0006712549948133528,
        -0.021107906475663185
      ],
      "type": "VEC2"
    },
    {
      "bufferView": 0,
      "byteOffset": 5194560,
      "componentType": 5125,
      "count": 94494,
      "type": "SCALAR"
    },
    {
      "bufferView": 2,
      "byteOffset": 6500760,
      "componentType": 5126,
      "count": 325,
      "max": [
        13.269775390625,
        10.053888320922852,
        5.488542079925537
      ],
      "min": [
        -5.2406005859375,
        -0.32191044092178345,
        -1.802079200744629
      ],
      "type": "VEC3"
    },
    {
      "bufferView": 2,
      "byteOffset": 6504660,
      "componentType": 5126,
      "count": 325,
      "max": [
        0.9679209589958191,
        0.9820801615715027,
        0.9859581589698792
      ],
      "min": [
        -0.965246319770813,
        -0.9835461974143982,
        -0.9840847253799438
      ],
      "type": "VEC3"
    },
    {
      "bufferView": 1,
      "byteOffset": 2166920,
      "componentType": 5126,
      "count": 325,
      "max": [
        1.0,
        1.0
      ],
      "min": [
        0.0,
        0.0
      ],
      "type": "VEC2"
    },
    {
      "bufferView": 0,
      "byteOffset": 5572536,
      "componentType": 5125,
      "count": 1728,
      "type": "SCALAR"
    },
    {
      "bufferView": 2,
      "byteOffset": 6508560,
      "componentType": 5126,
      "count": 325,
      "max": [
        13.269775390625,
        10.053888320922852,
        5.488542079925537
      ],
      "min": [
        -5.2406005859375,
        -0.32191044092178345,
        -1.802079200744629
      ],
      "type": "VEC3"
    },
    {
      "bufferView": 2,
      "byteOffset": 6512460,
      "componentType": 5126,
      "count": 325,
      "max": [
        0.9679209589958191,
        0.9820801615715027,
        0.9859581589698792
      ],
      "min": [
        -0.965246319770813,
        -0.9835461974143982,
        -0.9840847253799438
      ],
      "type": "VEC3"
    },
    {
      "bufferView": 1,
      "byteOffset": 2169520,
      "componentType": 5126,
      "count": 325,
      "max": [
        1.0,
        1.0
      ],
      "min": [
        0.0,
        0.0
      ],
      "type": "VEC2"
    },
    {
      "bufferView": 0,
      "byteOffset": 5579448,
      "componentType": 5125,
      "count": 1728,
      "type": "SCALAR"
    },
    {
      "bufferView": 2,
      "byteOffset": 6516360,
      "componentType": 5126,
      "count": 169,
      "max": [
        9.149871826171875,
        16.977888107299805,
        10.11413288116455
      ],
      "min": [
        -5.39150333404541,
        13.87666130065918,
        6.730384349822998
      ],
      "type": "VEC3"
    },
    {
      "bufferView": 2,
      "byteOffset": 6518388,
      "componentType": 5126,
      "count": 169,
      "max": [
        0.5878705978393555,
        0.9820801615715027,
        0.9859581589698792
      ],
      "min": [
        -0.6133455634117126,
        -0.9835461974143982,
        -0.9840847253799438
      ],
      "type": "VEC3"
    },
    {
      "bufferView": 1,
      "byteOffset": 2172120,
      "componentType": 5126,
      "count": 169,
      "max": [
        1.0,
        1.0
      ],
      "min": [
        0.0,
        0.0
      ],
      "type": "VEC2"
    },
    {
      "bufferView": 0,
      "byteOffset": 5586360,
      "componentType": 5125,
      "count": 864,
      "type": "SCALAR"
    },
    {
      "bufferView": 2,
      "byteOffset": 6520416,
      "componentType": 5126,
      "count": 169,
      "max": [
        3.7467899322509766,
        16.6910343170166,
        14.290491104125977
      ],
      "min": [
        -10.020840644836426,
        12.946883201599121,
        9.75312614440918
      ],
      "type": "VEC3"
    },
    {
      "bufferView": 2,
      "byteOffset": 6522444,
      "componentType": 5126,
      "count": 169,
      "max": [
        0.5230607986450195,
        0.973069429397583,
        0.9821128249168396
      ],
      "min": [
        -0.5799643993377686,
        -0.9746525883674622,
        -0.9785621762275696
      ],
      "type": "VEC3"
    },
    {
      "bufferView": 1,
      "byteOffset": 2173472,
      "componentType": 5126,
      "count": 169,
      "max": [
        1.0,
        1.0
      ],
      "min": [
        0.0,
        0.0
      ],
      "type": "VEC2"
    },
    {
      "bufferView": 0,
      "byteOffset": 5589816,
      "componentType": 5125,
      "count": 864,
      "type": "SCALAR"
    }
  ],
  "asset": {
    "extras": {
      "author": "The Period App (https://sketchfab.com/Adele.Keane)",
      "license": "CC-BY-4.0 (http://creativecommons.org/licenses/by/4.0/)",
      "source": "https://sketchfab.com/3d-models/female-reproductive-system-89fbe9c118404161acb3e9c1b427a2c8",
      "title": "Female Reproductive System"
    },
    "generator": "Sketchfab-13.26.0",
    "version": "2.0"
  },
  "bufferViews": [
    {
      "buffer": 0,
      "byteLength": 5593272,
      "name": "floatBufferViews",
      "target": 34963
    },
    {
      "buffer": 0,
      "byteLength": 2174824,
      "byteOffset": 5593272,
      "byteStride": 8,
      "name": "floatBufferViews",
      "target": 34962
    },
    {
      "buffer": 0,
      "byteLength": 6524472,
      "byteOffset": 7768096,
      "byteStride": 12,
      "name": "floatBufferViews",
      "target": 34962
    }
  ],
  "buffers": [
    {
      "byteLength": 14292568,
      "uri": "scene.bin"
    }
  ],
  "materials": [
    {
      "doubleSided": true,
      "name": "Material.001",
      "pbrMetallicRoughness": {
        "baseColorFactor": [
          0.6172065624196509,
          0.14412847085805774,
          0.234550582161005,
          1.0
        ],
        "metallicFactor": 0.0,
        "roughnessFactor": 0.5
      }
    },
    {
      "doubleSided": true,
      "name": "Material.002",
      "pbrMetallicRoughness": {
        "baseColorFactor": [
          0.6172065624196509,
          0.14412847085805774,
          0.234550582161005,
          1.0
        ],
        "metallicFactor": 0.0,
        "roughnessFactor": 0.5
      }
    },
    {
      "doubleSided": true,
      "name": "Material.003",
      "pbrMetallicRoughness": {
        "baseColorFactor": [
          1.0,
          0.2622506575296961,
          0.11953842798834559,
          1.0
        ],
        "metallicFactor": 0.0,
        "roughnessFactor": 0.5
      }
    },
    {
      "doubleSided": true,
      "name": "Material",
      "pbrMetallicRoughness": {
        "baseColorFactor": [
          0.31398871337571754,
          0.08437621154414879,
          0.18447499450044094,
          1.0
        ],
        "metallicFactor": 0.0,
        "roughnessFactor": 0.5
      }
    },
    {
      "doubleSided": true,
      "name": "Material.005",
      "pbrMetallicRoughness": {
        "baseColorFactor": [
          1.0,
          0.2622506575296961,
          0.11953842798834559,
          1.0
        ],
        "metallicFactor": 0.0,
        "roughnessFactor": 0.5
      }
    }
  ],
  "meshes": [
    {
      "name": "Object_0",
      "primitives": [
        {
          "attributes": {
            "NORMAL": 1,
            "POSITION": 0,
            "TEXCOORD_0": 2
          },
          "indices": 3,
          "material": 0,
          "mode": 4
        }
      ]
    },
    {
      "name": "Object_1",
      "primitives": [
        {
          "attributes": {
            "NORMAL": 5,
            "POSITION": 4,
            "TEXCOORD_0": 6
          },
          "indices": 7,
          "material": 0,
          "mode": 4
        }
      ]
    },
    {
      "name": "Object_2",
      "primitives": [
        {
          "attributes": {
            "NORMAL": 9,
            "POSITION": 8,
            "TEXCOORD_0": 10
          },
          "indices": 11,
          "material": 0,
          "mode": 4
        }
      ]
    },
    {
      "name": "Object_3",
      "primitives": [
        {
          "attributes": {
            "NORMAL": 13,
            "POSITION": 12,
            "TEXCOORD_0": 14
          },
          "indices": 15,
          "material": 0,
          "mode": 4
        }
      ]
    },
    {
      "name": "Object_4",
      "primitives": [
        {
          "attributes": {
            "NORMAL": 17,
            "POSITION": 16,
            "TEXCOORD_0": 18
          },
          "indices": 19,
          "material": 1,
          "mode": 4
        }
      ]
    },
    {
      "name": "Object_5",
      "primitives": [
        {
          "attributes": {
            "NORMAL": 21,
            "POSITION": 20,
            "TEXCOORD_0": 22
          },
          "indices": 23,
          "material": 2,
          "mode": 4
        }
      ]
    },
    {
      "name": "Object_6",
      "primitives": [
        {
          "attributes": {
            "NORMAL": 25,
            "POSITION": 24,
            "TEXCOORD_0": 26
          },
          "indices": 27,
          "material": 3,
          "mode": 4
        }
      ]
    },
    {
      "name": "Object_7",
      "primitives": [
        {
          "attributes": {
            "NORMAL": 29,
            "POSITION": 28,
            "TEXCOORD_0": 30
          },
          "indices": 31,
          "material": 3,
          "mode": 4
        }
      ]
    },
    {
      "name": "Object_8",
      "primitives": [
        {
          "attributes": {
            "NORMAL": 33,
            "POSITION": 32,
            "TEXCOORD_0": 34
          },
          "indices": 35,
          "material": 4,
          "mode": 4
        }
      ]
    },
    {
      "name": "Object_9",
      "primitives": [
        {
          "attributes": {
            "NORMAL": 37,
            "POSITION": 36,
            "TEXCOORD_0": 38
          },
          "indices": 39,
          "material": 4,
          "mode": 4
        }
      ]
    }
  ],
  "nodes": [
    {
      "children": [
        1
      ],
      "matrix": [
        1.0,
        0.0,
        0.0,
        0.0,
        0.0,
        2.220446049250313e-16,
        -1.0,
        0.0,
        0.0,
        1.0,
        2.220446049250313e-16,
        0.0,
        0.0,
        0.0,
        0.0,
        1.0
      ],
      "name": "Sketchfab_model"
    },
    {
      "children": [
        2
      ],
      "name": "root"
    },
    {
      "children": [
        3,
        8,
        10,
        12,
        14,
        16,
        18
      ],
      "matrix": [
        1.0,
        0.0,
        0.0,
        0.0,
        0.0,
        2.220446049250313e-16,
        1.0,
        0.0,
        0.0,
        -1.0,
        2.220446049250313e-16,
        0.0,
        0.0,
        0.0,
        0.0,
        1.0
      ],
      "name": "GLTF_SceneRootNode"
    },
    {
      "children": [
        4,
        5,
        6,
        7
      ],
      "matrix": [
        0.0007430906346468369,
        -0.0005279141605576965,
        -0.9999995845613876,
        0.0,
        0.5791422659555663,
        0.8152264935487878,
        -1.4416052462884466e-08,
        0.0,
        0.815226154879835,
        -0.5791420253467945,
        0.000911524575647471,
        0.0,
        0.5321141481399536,
        1.2006006240844727,
        0.011464713141322136,
        1.0
      ],
      "name": "UTERUS_3"
    },
    {
      "mesh": 0,
      "name": "Object_4"
    },
    {
      "mesh": 1,
      "name": "Object_5"
    },
    {
      "mesh": 2,
      "name": "Object_6"
    },
    {
      "mesh": 3,
      "name": "Object_7"
    },
    {
      "children": [
        9
      ],
      "matrix": [
        0.6526925644011583,
        0.7576228721306134,
        0.0,
        0.0,
        -0.7576228721306134,
        0.6526925644011583,
        0.0,
        0.0,
        0.0,
        0.0,
        1.0,
        0.0,
        0.2904803156852722,
        2.7635498046875,
        -0.0071083903312683105,
        1.0
      ],
      "name": "WOMB_4"
    },
    {
      "mesh": 4,
      "name": "Object_9"
    },
    {
      "children": [
        11
      ],
      "matrix": [
        0.0009115519426738938,
        0.0,
        -0.9999995845364417,
        0.0,
        0.0,
        1.0,
        0.0,
        0.0,
        0.9999995845364417,
        0.0,
        0.0009115519426738938,
        0.0,
        -0.06513005495071411,
        0.7088019847869873,
        0.017461776733398438,
        1.0
      ],
      "name": "OVARIES_5"
    },
    {
      "mesh": 5,
      "name": "Object_11"
    },
    {
      "children": [
        13
      ],
      "matrix": [
        -0.007954039450129962,
        0.010229121537857199,
        0.06987895764010425,
        0.0,
        -0.03251293788884954,
        -0.06295605658507028,
        0.005514907158892603,
        0.0,
        0.0626945972005527,
        -0.03135076400503087,
        0.01172550510806562,
        0.0,
        0.0607757568359375,
        3.028934955596924,
        0.8144536018371582,
        1.0
      ],
      "name": "TUBE_R.001_10"
    },
    {
      "mesh": 6,
      "name": "Object_13"
    },
    {
      "children": [
        15
      ],
      "matrix": [
        0.006767753606921348,
        0.010229123285287857,
        -0.0700038066094148,
        0.0,
        0.03241472999876677,
        -0.06295605601105482,
        -0.0060655323359076595,
        0.0,
        -0.06288444308492376,
        -0.03135076458757064,
        -0.010660523887299071,
        0.0,
        -0.057358041405677795,
        3.036956548690796,
        -0.8702287077903748,
        1.0
      ],
      "name": "TUBE_L.001_11"
    },
    {
      "mesh": 7,
      "name": "Object_15"
    },
    {
      "children": [
        17
      ],
      "matrix": [
        -0.0025910602602884484,
        0.0042647523311208435,
        -0.03465260462709298,
        0.0,
        -0.023941669956235322,
        0.05563202661852239,
        0.008636901266603896,
        0.0,
        0.05651273733961689,
        0.024508435511366704,
        -0.001209303049295488,
        0.0,
        0.005372006446123123,
        1.3692874908447266,
        0.8351300358772278,
        1.0
      ],
      "name": "Ov_Tube_R.002_12"
    },
    {
      "mesh": 8,
      "name": "Object_17"
    },
    {
      "children": [
        19
      ],
      "matrix": [
        0.002591060022964143,
        -0.0042647512771349805,
        0.034652604774554036,
        -0.0,
        -0.023941669474828536,
        0.05563202711564956,
        0.008636899398976716,
        0.0,
        0.05651273758015555,
        0.02450843493490222,
        -0.0012093034914873843,
        0.0,
        -0.2174920290708542,
        1.3465861082077026,
        -0.8673452734947205,
        1.0
      ],
      "name": "Ov_Tube_R.003_13"
    },
    {
      "mesh": 9,
      "name": "Object_19"
    }
  ],
  "scene": 0,
  "scenes": [
    {
      "name": "Sketchfab_Scene",
      "nodes": [
        0
      ]
    }
  ]
}
